<?xml version="1.0" standalone="no"?>
<!DOCTYPE svg PUBLIC "-//W3C//DTD SVG 20010904//EN"
 "http://www.w3.org/TR/2001/REC-SVG-20010904/DTD/svg10.dtd">
<svg version="1.0" xmlns="http://www.w3.org/2000/svg"
 width="1145.000000pt" height="1145.000000pt" viewBox="0 0 1145.000000 1145.000000"
 preserveAspectRatio="xMidYMid meet">
<metadata>
Created by potrace 1.16, written by Peter Selinger 2001-2019
</metadata>
<g transform="translate(0.000000,1145.000000) scale(0.100000,-0.100000)"
fill="#000000" stroke="none">
<path d="M6570 6820 c-103 -25 -190 -86 -221 -155 -27 -58 -25 -141 4 -196 51
-98 179 -147 312 -119 113 23 175 127 161 265 -3 35 -4 69 -1 78 7 18 44 11
63 -12 98 -121 111 -217 112 -872 1 -241 4 -448 7 -460 6 -22 7 -22 14 -3 6
14 8 9 10 -21 1 -24 3 -31 6 -17 2 12 8 22 13 22 5 0 14 2 22 5 8 3 21 -7 31
-24 19 -32 22 -45 8 -36 -5 3 -12 1 -15 -4 -9 -13 33 -21 41 -8 5 7 10 265 11
574 4 547 3 565 -18 655 -24 106 -32 119 -103 192 -62 64 -149 114 -226 132
-62 15 -176 17 -231 4z m134 -132 c9 -12 16 -31 16 -42 0 -20 0 -20 14 0 16
21 20 19 30 -13 6 -17 3 -23 -9 -23 -9 0 -14 -4 -10 -10 10 -16 -59 -104 -96
-122 -42 -22 -118 -23 -145 -3 -10 8 -29 15 -41 15 -37 0 -45 31 -21 78 11 23
24 42 29 42 5 0 9 7 9 14 0 17 52 60 90 75 14 5 46 10 72 10 38 1 50 -3 62
-21z"/>
<path d="M8215 6819 c-45 -11 -86 -29 -129 -58 -34 -23 -86 -96 -86 -122 0 -9
-4 -19 -8 -21 -5 -1 -12 -16 -16 -31 -4 -17 -3 -26 2 -23 6 3 12 -3 15 -14 7
-28 34 -16 99 45 29 28 70 61 92 73 108 63 232 22 275 -91 26 -67 31 -179 31
-724 1 -439 4 -573 13 -573 8 0 8 -3 -1 -9 -10 -6 -9 -10 7 -14 16 -4 21 0 22
16 0 21 1 21 8 3 5 -14 10 -16 15 -8 4 7 4 16 1 22 -3 6 1 7 9 4 9 -3 16 -1
16 5 0 21 20 11 26 -14 3 -14 12 -25 19 -25 10 0 14 107 20 498 4 273 4 547 0
607 -13 201 -48 309 -124 378 -54 49 -87 64 -162 76 -74 12 -89 12 -144 0z"/>
<path d="M1190 6303 c-91 -10 -193 -61 -255 -128 -44 -49 -99 -155 -116 -225
-18 -72 -18 -248 0 -330 8 -36 30 -96 49 -135 34 -69 126 -195 142 -195 5 0
21 -11 37 -24 l29 -24 47 45 c26 24 47 46 47 47 0 1 -22 25 -49 54 -55 58
-112 168 -136 257 -31 122 -13 301 41 385 62 98 163 149 269 136 93 -11 143
-42 178 -111 25 -50 28 -88 31 -385 2 -157 4 -315 5 -351 l1 -66 33 4 c17 2
46 4 64 4 27 -1 33 4 42 32 5 17 12 174 15 347 5 338 13 403 53 451 45 53 98
74 188 74 99 -1 157 -26 213 -93 62 -75 100 -208 87 -311 -16 -138 -50 -229
-127 -345 -44 -66 -65 -132 -34 -107 15 12 19 12 34 -3 16 -17 16 -18 -5 -11
-26 7 -29 0 -8 -21 13 -13 18 -13 43 0 42 22 152 139 152 162 0 8 4 14 9 14 5
0 15 17 22 38 6 20 15 42 19 47 17 23 39 126 45 216 12 162 -35 330 -119 426
-46 52 -158 110 -241 123 -124 20 -256 -12 -363 -88 -40 -29 -56 -28 -105 8
-84 59 -225 94 -337 83z"/>
<path d="M2800 6295 c-90 -18 -187 -78 -227 -141 -36 -54 -63 -116 -63 -142 0
-25 5 -30 39 -40 55 -17 68 -15 75 12 9 35 117 140 171 166 67 32 176 26 232
-13 75 -52 121 -170 130 -338 11 -203 -48 -364 -153 -414 -53 -25 -153 -30
-211 -11 -72 24 -191 155 -176 193 5 14 0 15 -33 10 -21 -4 -50 -7 -63 -7 -23
0 -24 -2 -17 -56 7 -62 50 -138 107 -190 73 -65 222 -112 320 -100 169 19 286
119 350 296 21 58 24 82 24 215 -1 347 -103 522 -330 564 -71 13 -92 13 -175
-4z"/>
<path d="M3798 6300 c-173 -21 -279 -90 -313 -202 -13 -44 -13 -66 -4 -132 12
-93 23 -117 77 -170 52 -49 134 -73 302 -86 241 -19 311 -40 357 -109 27 -39
23 -100 -10 -168 -25 -52 -18 -50 -377 -59 -146 -3 -272 -10 -280 -14 -8 -4
-21 -5 -27 -3 -19 7 -16 -8 5 -23 15 -12 15 -13 0 -14 -12 0 -15 -6 -11 -22
11 -43 18 -45 171 -47 180 -2 369 -9 440 -17 37 -4 52 -2 52 7 0 8 4 8 13 1
19 -17 40 -126 35 -184 -5 -45 -11 -57 -43 -85 -20 -17 -57 -39 -82 -47 -64
-22 -187 -30 -258 -17 -33 6 -80 13 -105 16 -25 2 -74 14 -110 25 -69 21 -115
26 -106 11 3 -5 -1 -14 -9 -21 -15 -13 -10 -35 6 -25 5 4 9 2 9 -4 0 -5 -4
-13 -10 -16 -5 -3 -10 -1 -10 5 0 6 -5 8 -12 4 -33 -20 96 -83 227 -110 280
-58 539 -1 610 136 24 45 32 205 14 270 -17 60 -15 160 3 207 27 67 32 153 12
223 -38 136 -143 187 -430 209 -71 6 -152 15 -180 21 -106 23 -151 77 -145
172 1 10 17 36 37 58 29 32 52 45 106 61 61 19 87 21 201 16 118 -4 183 -15
308 -53 12 -3 18 3 21 25 2 17 0 33 -6 35 -7 3 -6 5 2 5 20 2 14 19 -10 27
-22 7 -22 7 -3 14 16 5 8 11 -38 28 -111 42 -313 66 -429 52z"/>
<path d="M9694 6301 c-81 -13 -153 -52 -222 -119 -34 -33 -62 -63 -62 -66 0
-3 -13 -34 -28 -68 -16 -35 -34 -77 -41 -94 -22 -55 -63 -84 -153 -109 -151
-41 -163 -45 -218 -83 -128 -87 -158 -295 -61 -429 69 -95 224 -126 428 -84
125 26 157 26 258 0 147 -37 300 -19 400 49 50 34 111 98 130 137 36 76 67
176 73 235 7 62 8 65 35 68 29 3 137 -30 172 -52 38 -25 95 -88 101 -113 13
-49 -2 -122 -30 -152 -37 -39 -105 -71 -168 -78 -57 -7 -113 -34 -128 -63 -14
-26 -14 -26 22 -41 44 -18 198 -13 263 8 99 32 159 88 189 176 40 117 -1 259
-94 334 -23 19 -108 64 -127 68 -59 12 -152 39 -173 50 -41 21 -62 52 -96 137
-35 90 -96 175 -156 219 -84 60 -204 87 -314 70z m176 -147 c106 -44 170 -138
170 -249 l0 -57 -32 5 c-75 13 -281 17 -393 8 -132 -10 -135 -9 -135 46 0 57
24 124 58 164 83 97 217 130 332 83z m-542 -415 c7 -12 12 -40 11 -62 -2 -55
10 -113 27 -128 8 -6 14 -26 14 -44 0 -18 7 -38 15 -45 16 -13 21 -45 6 -36
-5 3 -11 -7 -14 -23 -5 -25 -11 -29 -53 -35 -157 -21 -275 6 -312 73 -33 58
-30 127 7 178 38 52 82 79 189 113 106 35 95 34 110 9z m722 -43 c0 -31 -29
-149 -48 -197 -25 -64 -122 -127 -207 -136 -62 -6 -179 13 -213 35 -13 9 -35
17 -49 18 -30 3 -29 2 -37 34 -6 19 -5 21 3 10 8 -11 11 -12 11 -2 0 10 4 10
16 -2 8 -9 17 -16 20 -16 7 0 -19 42 -41 68 -11 13 -18 24 -16 25 1 1 0 27 -3
57 -7 59 -10 107 -7 127 1 10 68 12 286 12 l285 -1 0 -32z"/>
<path d="M4650 6290 c-14 -4 -19 -8 -13 -9 10 -1 10 -7 1 -26 -6 -14 -9 -27
-7 -29 2 -1 36 -15 76 -30 136 -52 162 -93 163 -255 0 -109 -34 -310 -66 -386
-21 -51 -78 -122 -105 -130 -31 -10 -61 -42 -46 -49 7 -4 1 -4 -12 -2 -30 6
-68 -30 -99 -96 -18 -36 -23 -65 -24 -144 -2 -106 9 -142 69 -222 25 -34 107
-81 152 -88 14 -2 41 -6 59 -9 42 -8 146 12 197 38 134 65 195 214 149 366
-15 52 -61 110 -97 124 -9 3 -22 19 -29 34 -6 15 -23 40 -36 55 -24 26 -25 32
-18 110 3 46 12 106 20 134 8 29 22 110 31 182 14 102 15 142 7 189 -22 128
-86 206 -191 237 -57 17 -139 20 -181 6z m243 -886 c47 -23 117 -153 124 -234
7 -77 -2 -123 -34 -160 -63 -76 -173 -93 -257 -40 -57 37 -79 81 -80 165 0 43
6 73 22 106 26 53 79 119 96 119 6 0 24 14 39 30 33 34 44 36 90 14z"/>
<path d="M7625 6290 c-11 -4 -38 -13 -60 -20 -84 -26 -119 -55 -156 -126 -31
-61 -34 -76 -33 -149 0 -96 26 -160 83 -203 66 -52 128 -67 350 -88 164 -15
206 -24 258 -58 48 -31 67 -73 59 -129 -16 -106 -115 -157 -308 -157 -144 0
-358 50 -382 89 -12 19 -26 12 -26 -13 0 -14 -4 -36 -10 -51 -8 -22 -13 -24
-30 -15 -13 7 -20 7 -20 1 0 -6 10 -16 23 -22 12 -7 37 -24 55 -37 19 -14 41
-27 50 -28 10 -2 50 -12 90 -23 242 -67 489 -43 606 60 70 62 90 107 90 204 0
138 -37 211 -133 259 -49 25 -188 48 -379 65 -170 15 -239 55 -249 143 -6 58
25 103 97 143 51 27 64 30 186 33 135 4 208 -6 352 -50 34 -10 68 -16 74 -12
8 5 5 10 -8 15 -16 6 -15 8 9 8 17 1 27 7 27 16 0 9 6 12 16 8 12 -4 15 0 12
18 -4 32 -72 64 -210 100 -95 24 -125 27 -260 27 -84 0 -162 -4 -173 -8z"/>
<path d="M6575 6203 c-4 -43 -8 -241 -9 -440 -1 -278 -5 -366 -14 -375 -10
-10 -89 -14 -318 -16 -168 -2 -316 -1 -328 2 -21 5 -22 8 -12 40 6 19 14 32
18 30 4 -3 8 4 8 14 0 11 7 25 15 32 32 27 9 182 -38 257 -69 108 -224 162
-384 133 -115 -21 -189 -76 -241 -180 -41 -85 -37 -204 13 -315 15 -34 65 -85
65 -67 0 6 6 9 14 6 8 -3 17 -1 20 5 4 6 13 8 21 4 20 -7 20 33 1 78 -41 100
-27 226 32 288 42 44 90 61 172 61 107 -1 184 -63 210 -171 15 -62 8 -112 -29
-198 -31 -73 -29 -99 11 -125 20 -13 84 -16 439 -16 229 -1 427 2 441 5 20 5
27 15 32 43 6 38 5 593 -2 845 l-3 137 -63 0 -64 0 -7 -77z"/>
</g>
</svg>
